<svg width="64" height="53" viewBox="0 0 64 53" fill="none" xmlns="http://www.w3.org/2000/svg">
<path d="M57.4479 12.9463C57.4869 13.5105 57.4869 14.0747 57.4869 14.6441C57.4869 31.9942 44.2787 52.0041 20.1269 52.0041V51.9937C12.9924 52.0041 6.00609 49.9605 0 46.1072C1.03742 46.232 2.08003 46.2944 3.12525 46.297C9.03774 46.3022 14.7812 44.3184 19.4327 40.6653C13.814 40.5587 8.88694 36.8953 7.16571 31.547C9.13394 31.9266 11.162 31.8486 13.0938 31.3208C6.96811 30.0832 2.56104 24.7011 2.56104 18.4506C2.56104 18.3934 2.56104 18.3388 2.56104 18.2842C4.38627 19.3008 6.4299 19.865 8.52033 19.9274C2.75084 16.0715 0.972415 8.39621 4.45647 2.39532C11.123 10.5984 20.9589 15.5853 31.5177 16.1131C30.4595 11.5527 31.9051 6.77379 35.3164 3.56794C40.6048 -1.40334 48.9224 -1.14854 53.8936 4.13735C56.8343 3.55754 59.6527 2.47852 62.232 0.949697C61.2518 3.98914 59.2003 6.57099 56.4599 8.21161C59.0625 7.90481 61.6054 7.208 64 6.14458C62.2372 8.78622 60.0167 11.0873 57.4479 12.9463Z" fill="white"/>
</svg>
