<svg width="64" height="63" viewBox="0 0 64 63" fill="none" xmlns="http://www.w3.org/2000/svg">
<path fill-rule="evenodd" clip-rule="evenodd" d="M31.9971 2.77842e-05C14.3268 2.77842e-05 0 14.3268 0 32.001C0 46.1392 9.16812 58.1322 21.884 62.3656C23.4851 62.6583 24.0685 61.6702 24.0685 60.8215C24.0685 60.0633 24.041 58.0497 24.0253 55.38C15.1243 57.313 13.2463 51.0896 13.2463 51.0896C11.7907 47.3945 9.69262 46.4103 9.69262 46.4103C6.78719 44.4242 9.91264 44.4635 9.91264 44.4635C13.1245 44.6914 14.814 47.7618 14.814 47.7618C17.6683 52.6514 22.3044 51.2389 24.1274 50.4217C24.4182 48.3531 25.2433 46.9427 26.1587 46.1431C19.0533 45.3357 11.5824 42.5894 11.5824 30.3273C11.5824 26.8345 12.8299 23.9782 14.8768 21.7407C14.5468 20.9313 13.4487 17.6782 15.1892 13.2719C15.1892 13.2719 17.8765 12.4115 23.9899 16.5525C26.5418 15.8434 29.2802 15.4878 32.001 15.476C34.7178 15.4878 37.4563 15.8434 40.012 16.5525C46.1215 12.4115 48.803 13.2719 48.803 13.2719C50.5494 17.6782 49.4512 20.9313 49.1212 21.7407C51.1721 23.9782 52.4117 26.8345 52.4117 30.3273C52.4117 42.6209 44.9291 45.3259 37.8001 46.1176C38.9493 47.1057 39.9727 49.0584 39.9727 52.0444C39.9727 56.321 39.9335 59.7725 39.9335 60.8215C39.9335 61.678 40.509 62.674 42.1336 62.3617C54.8397 58.1204 64 46.1353 64 32.001C64 14.3268 49.6713 2.77842e-05 31.9971 2.77842e-05Z" fill="white"/>
</svg>
